<?xml version="1.0" encoding="UTF-8"?>
<svg width="32" height="32" viewBox="0 0 32 32" fill="none" xmlns="http://www.w3.org/2000/svg">
  <rect width="32" height="32" rx="6" fill="#0F172A"/>
  <path d="M22 9.5C22 9.5 19.5 7 16 7C12.5 7 10 9.5 10 12C10 14.5 12 15.5 14 16.5C16 17.5 18 18.5 18 20.5C18 23 15.5 25 12 25C8.5 25 6 22.5 6 22.5" 
        stroke="#3B82F6" 
        stroke-width="2" 
        stroke-linecap="round" 
        stroke-linejoin="round"
        fill="none"/>
  <path d="M22 9.5C22 9.5 19.5 7 16 7C12.5 7 10 9.5 10 12C10 14.5 12 15.5 14 16.5C16 17.5 18 18.5 18 20.5C18 23 15.5 25 12 25C8.5 25 6 22.5 6 22.5" 
        stroke="#60A5FA" 
        stroke-width="1" 
        stroke-linecap="round" 
        stroke-linejoin="round"
        fill="none"
        opacity="0.5"/>
</svg> 